<?xml version="1.0" encoding="UTF-8"?>
<svg width="122px" height="104px" viewBox="0 0 122 104" version="1.1" xmlns="http://www.w3.org/2000/svg" xmlns:xlink="http://www.w3.org/1999/xlink">
    <!-- Generator: Sketch 55 (78076) - https://sketchapp.com -->
    <title>加载失败</title>
    <desc>Created with Sketch.</desc>
    <g id="Page-1" stroke="none" stroke-width="1" fill="none" fill-rule="evenodd">
        <g id="空白页" transform="translate(-656.000000, -196.000000)">
            <g id="加载失败" transform="translate(656.000000, 196.000000)">
                <g id="分组-2">
                    <g id="背景/线" fill="#C3CBD6">
                        <g id="-">
                            <g id="编组" transform="translate(14.200000, 9.200000)" fill-rule="nonzero">
                                <path d="M0.8,73.1 C0.3581722,73.1 -5.68434189e-14,72.7418278 -5.68434189e-14,72.3 C-5.68434189e-14,71.8581722 0.3581722,71.5 0.8,71.5 L70.8,71.5 C71.2418278,71.5 71.6,71.8581722 71.6,72.3 C71.6,72.7418278 71.2418278,73.1 70.8,73.1 L0.8,73.1 Z M74.8,73.1 C74.3581722,73.1 74,72.7418278 74,72.3 C74,71.8581722 74.3581722,71.5 74.8,71.5 L77.3,71.5 C77.7418278,71.5 78.1,71.8581722 78.1,72.3 C78.1,72.7418278 77.7418278,73.1 77.3,73.1 L74.8,73.1 Z M83.8,73.1 C83.3581722,73.1 83,72.7418278 83,72.3 C83,71.8581722 83.3581722,71.5 83.8,71.5 L92.8,71.5 C93.2418278,71.5 93.6,71.8581722 93.6,72.3 C93.6,72.7418278 93.2418278,73.1 92.8,73.1 L83.8,73.1 Z M23.8,80.6 C23.3581722,80.6 23,80.2418278 23,79.8 C23,79.3581722 23.3581722,79 23.8,79 L30.8,79 C31.2418278,79 31.6,79.3581722 31.6,79.8 C31.6,80.2418278 31.2418278,80.6 30.8,80.6 L23.8,80.6 Z M35.3,80.6 C34.8581722,80.6 34.5,80.2418278 34.5,79.8 C34.5,79.3581722 34.8581722,79 35.3,79 L65.8,79 C66.2418278,79 66.6,79.3581722 66.6,79.8 C66.6,80.2418278 66.2418278,80.6 65.8,80.6 L35.3,80.6 Z M80,52.8 C80,51.7333333 81.6,51.7333333 81.6,52.8 L81.6,55.8 C81.6,56.2418278 81.2418278,56.6 80.8,56.6 L77.8,56.6 C76.7333333,56.6 76.7333333,55 77.8,55 L80,55 L80,52.8 Z M81.6,58.8 C81.6,59.8666667 80,59.8666667 80,58.8 L80,55.8 C80,55.3581722 80.3581722,55 80.8,55 L83.8,55 C84.8666667,55 84.8666667,56.6 83.8,56.6 L81.6,56.6 L81.6,58.8 Z M4,28.8 C4,27.7333333 5.6,27.7333333 5.6,28.8 L5.6,31.8 C5.6,32.2418278 5.2418278,32.6 4.8,32.6 L1.8,32.6 C0.733333333,32.6 0.733333333,31 1.8,31 L4,31 L4,28.8 Z M78.1,3.5 L80.8,3.5 C81.8666667,3.5 81.8666667,5.1 80.8,5.1 L78.1,5.1 L78.1,7.8 C78.1,8.86666667 76.5,8.86666667 76.5,7.8 L76.5,5.1 L73.8,5.1 C72.7333333,5.1 72.7333333,3.5 73.8,3.5 L76.5,3.5 L76.5,0.8 C76.5,-0.266666667 78.1,-0.266666667 78.1,0.8 L78.1,3.5 Z M5.6,34.8 C5.6,35.8666667 4,35.8666667 4,34.8 L4,31.8 C4,31.3581722 4.3581722,31 4.8,31 L7.8,31 C8.86666667,31 8.86666667,32.6 7.8,32.6 L5.6,32.6 L5.6,34.8 Z" id="Path-2"></path>
                                <path d="M14.0928932,61.1431458 C14.5642977,60.6717412 15.2714045,61.378848 14.8,61.8502525 L13.7393398,62.9109127 C13.5440777,63.1061748 13.2274952,63.1061748 13.032233,62.9109127 L11.9715729,61.8502525 C11.5001684,61.378848 12.2072751,60.6717412 12.6786797,61.1431458 L13.3857864,61.8502525 L14.0928932,61.1431458 Z M12.6786797,63.9715729 C12.2072751,64.4429774 11.5001684,63.7358706 11.9715729,63.2644661 L13.032233,62.2038059 C13.2274952,62.0085438 13.5440777,62.0085438 13.7393398,62.2038059 L14.8,63.2644661 C15.2714045,63.7358706 14.5642977,64.4429774 14.0928932,63.9715729 L13.3857864,63.2644661 L12.6786797,63.9715729 Z M22.9213203,8.8 C23.3927249,8.32859548 24.0998316,9.03570226 23.6284271,9.50710678 L22.567767,10.567767 C22.3725048,10.7630291 22.0559223,10.7630291 21.8606602,10.567767 L20.8,9.50710678 C20.3285955,9.03570226 21.0357023,8.32859548 21.5071068,8.8 L22.2142136,9.50710678 L22.9213203,8.8 Z M21.5071068,11.6284271 C21.0357023,12.0998316 20.3285955,11.3927249 20.8,10.9213203 L21.8606602,9.86066017 C22.0559223,9.66539803 22.3725048,9.66539803 22.567767,9.86066017 L23.6284271,10.9213203 C24.0998316,11.3927249 23.3927249,12.0998316 22.9213203,11.6284271 L22.2142136,10.9213203 L21.5071068,11.6284271 Z" id="Path复制"></path>
                            </g>
                        </g>
                    </g>
                    <g id="Group-5" transform="translate(37.000000, 31.000000)">
                        <path d="M3.6,-2.84217094e-14 L30.4072871,-2.84217094e-14 L27.4517754,3.85678998 L35.6344891,8.39734605 L35.7782771,17.5 L41.0920043,8.39734605 L35.7782771,3.85678998 L41.017146,-2.84217094e-14 L42.4,-2.84217094e-14 C44.3882251,-2.87869405e-14 46,1.6117749 46,3.6 L46,38.4 C46,40.3882251 44.3882251,42 42.4,42 L3.6,42 C1.6117749,42 2.01984419e-15,40.3882251 1.77635684e-15,38.4 L-4.4408921e-16,3.6 C-6.8757656e-16,1.6117749 1.6117749,-2.71683e-14 3.6,-2.7533531e-14 Z" id="Rectangle-5-Copy" stroke="#C3CBD7" stroke-width="1.6" fill="#FFFFFF" stroke-linejoin="round"></path>
                        <g id="分组" transform="translate(15.000000, 16.000000)">
                            <path d="M15.9730021,16.9792648 C14.0528141,14.7201485 11.190363,13.2868421 7.99314522,13.2868421 C4.78854382,13.2868421 1.92025706,14.7267763 -8.52651283e-14,16.9949296" id="Oval-5" stroke="#C3CBD6" stroke-width="2" stroke-linecap="round" stroke-linejoin="round"></path>
                            <rect id="Rectangle-2" fill="#C3CBD6" x="0.343145224" y="5.77315973e-15" width="2.41578947" height="5.63684211"></rect>
                            <rect id="Rectangle-2-Copy" fill="#C3CBD6" x="14.0326189" y="5.77315973e-15" width="2.41578947" height="5.63684211"></rect>
                        </g>
                        <path d="M5.22972094,8.02029448 C4.48081619,7.51339926 4.22785484,6.39804561 4.66471594,5.52908238 C5.10157705,4.66011915 6.0628302,4.36660503 6.81173495,4.87350025 L14.3470633,9.97377755 C15.095968,10.4806728 15.3489294,11.5960264 14.9120683,12.4649897 C14.4752072,13.3339529 13.513954,13.627467 12.7650493,13.1205718 L5.22972094,8.02029448 Z" id="Path-4" stroke="#C3CBD7" stroke-width="0.9" fill="#F5F7F9" fill-rule="nonzero"></path>
                        <path d="M11.8360167,3.81761246 C12.48046,3.14463266 13.4730665,3.20525021 14.0530655,3.95300555 C14.6330645,4.70076088 14.580822,5.85249428 13.9363787,6.52547408 L7.65693847,13.0829735 C7.01249518,13.7559533 6.01988861,13.6953357 5.43988965,12.9475804 C4.85989069,12.1998251 4.91213314,11.0480917 5.55657643,10.3751119 L11.8360167,3.81761246 Z" id="Path-4-Copy" stroke="#C3CBD7" stroke-width="0.9" fill="#F5F7F9" fill-rule="nonzero"></path>
                    </g>
                </g>
            </g>
        </g>
    </g>
</svg>