<svg t="1617522964175" class="icon" viewBox="0 0 1024 1024" version="1.1" xmlns="http://www.w3.org/2000/svg" p-id="2122"
    width="200" height="200">
    <path
        d="M512 337.322667a26.666667 26.666667 0 0 1-26.666667-26.666667V197.333333a26.666667 26.666667 0 1 1 53.333334 0v113.322667c0 14.762667-11.946667 26.666667-26.666667 26.666667z"
        fill="#000000" p-id="2123"></path>
    <path
        d="M424.661333 360.746667a26.666667 26.666667 0 0 1-36.394666-9.728l-56.661334-98.133334a26.666667 26.666667 0 0 1 46.122667-26.666666l56.661333 98.133333a26.624 26.624 0 0 1-9.728 36.394667z"
        fill="#000000" opacity=".9" p-id="2124"></path>
    <path
        d="M360.746667 424.661333a26.624 26.624 0 0 1-36.394667 9.728l-98.133333-56.661333a26.624 26.624 0 1 1 26.666666-46.122667l98.133334 56.661334c12.714667 7.338667 17.066667 23.68 9.728 36.394666z"
        fill="#000000" opacity=".85" p-id="2125"></path>
    <path
        d="M337.322667 512c0 14.72-11.946667 26.666667-26.666667 26.666667H197.333333a26.666667 26.666667 0 1 1 0-53.333334h113.322667c14.762667 0 26.666667 11.946667 26.666667 26.666667z"
        fill="#000000" opacity=".8" p-id="2126"></path>
    <path
        d="M360.746667 599.338667a26.666667 26.666667 0 0 1-9.728 36.394666l-98.133334 56.661334a26.666667 26.666667 0 0 1-26.666666-46.122667l98.133333-56.661333a26.624 26.624 0 0 1 36.394667 9.728z"
        fill="#000000" opacity=".75" p-id="2127"></path>
    <path
        d="M424.661333 663.253333a26.624 26.624 0 0 1 9.728 36.394667l-56.661333 98.133333a26.624 26.624 0 1 1-46.122667-26.666666l56.661334-98.133334a26.666667 26.666667 0 0 1 36.394666-9.728z"
        fill="#000000" opacity=".7" p-id="2128"></path>
    <path
        d="M512 686.677333c14.72 0 26.666667 11.946667 26.666667 26.666667v113.322667a26.666667 26.666667 0 1 1-53.333334 0v-113.322667c0-14.762667 11.946667-26.666667 26.666667-26.666667z"
        fill="#000000" opacity=".65" p-id="2129"></path>
    <path
        d="M599.338667 663.253333a26.666667 26.666667 0 0 1 36.394666 9.728l56.661334 98.133334a26.666667 26.666667 0 0 1-46.122667 26.666666l-56.661333-98.133333a26.624 26.624 0 0 1 9.728-36.394667z"
        fill="#000000" opacity=".6" p-id="2130"></path>
    <path
        d="M663.253333 599.338667a26.624 26.624 0 0 1 36.394667-9.728l98.133333 56.661333a26.624 26.624 0 1 1-26.666666 46.122667l-98.133334-56.661334a26.666667 26.666667 0 0 1-9.728-36.394666z"
        fill="#000000" opacity=".55" p-id="2131"></path>
    <path
        d="M686.677333 512c0-14.72 11.946667-26.666667 26.666667-26.666667h113.322667a26.666667 26.666667 0 1 1 0 53.333334h-113.322667a26.666667 26.666667 0 0 1-26.666667-26.666667z"
        fill="#000000" opacity=".5" p-id="2132"></path>
    <path
        d="M663.253333 424.661333a26.666667 26.666667 0 0 1 9.728-36.394666l98.133334-56.661334a26.666667 26.666667 0 0 1 26.666666 46.122667l-98.133333 56.661333a26.624 26.624 0 0 1-36.394667-9.728z"
        fill="#000000" opacity=".4" p-id="2133"></path>
    <path
        d="M599.338667 360.746667a26.624 26.624 0 0 1-9.728-36.394667l56.661333-98.133333a26.624 26.624 0 1 1 46.122667 26.666666l-56.661334 98.133334a26.666667 26.666667 0 0 1-36.394666 9.728z"
        fill="#000000" opacity=".3" p-id="2134"></path>
</svg>